<svg width="512" height="370" viewBox="0 0 512 370" fill="none" xmlns="http://www.w3.org/2000/svg">
<path d="M92 -95C14.6802 -95 -48 -32.3198 -48 45C-48 122.321 14.6802 185 92 185C14.6802 185 -48 247.679 -48 325C-48 402.321 14.6802 465 92 465C169.321 465 232 402.321 232 325C232 402.321 294.679 465 372 465C449.321 465 512 402.321 512 325C512 247.679 449.321 185 372 185C449.321 185 512 122.321 512 45C512 -32.3198 449.321 -95 372 -95C294.679 -95 232 -32.3198 232 45C232 -32.3198 169.321 -95 92 -95Z" fill="#E6F4FF"/>
</svg>
