<?xml version="1.0" encoding="utf-8"?>
<!-- Generator: Adobe Illustrator 25.0.0, SVG Export Plug-In . SVG Version: 6.00 Build 0)  -->
<svg version="1.1" id="圖層_1" xmlns="http://www.w3.org/2000/svg" xmlns:xlink="http://www.w3.org/1999/xlink" x="0px" y="0px"
	 viewBox="0 0 60 60" style="enable-background:new 0 0 60 60;" xml:space="preserve">
<style type="text/css">
	.st0{fill:#0068FF;}
</style>
<path class="st0" d="M11.7,58.3c1.6,1.2,3.3,1.7,5.1,1.7c2.7,0,5.3-1.3,7.1-3.7c0,0,0,0,0,0c0,0,0,0,0,0l0,0c0,0,0,0,0,0l6-8.6
	l6,8.6c0,0,0,0,0,0c0,0,0,0,0,0c2.8,4,8.3,4.9,12.2,2c3.9-2.9,4.8-8.6,2-12.6l0,0c0,0,0,0,0,0l-6-8.6l9.8-3.3
	c4.6-1.5,7.1-6.7,5.6-11.4c-1.5-4.8-6.4-7.4-11-5.8l-9.8,3.3l0-10.6c0-5-3.9-9.1-8.8-9.1s-8.8,4.1-8.8,9.1l0,10.6l-9.8-3.3
	c0,0,0,0,0,0c0,0,0,0,0,0c-4.6-1.5-9.5,1.1-11,5.8c-1.5,4.7,1,9.9,5.6,11.4c0,0,0,0,0,0l0,0l0,0l9.8,3.3l-6,8.6c0,0,0,0,0,0
	c0,0,0,0,0,0C7,49.7,7.8,55.3,11.7,58.3z"/>
</svg>
