<svg width="200" height="32" viewBox="0 0 200 32" fill="none" xmlns="http://www.w3.org/2000/svg">
<path d="M44.3028 23.8611H51.3683V27.2861H40.002V5.74889H44.3028V23.8611Z" fill="white"/>
<path d="M59.9387 9.23557V14.6353H67.1579V18.0603H59.9387V23.7685H68.0795V27.2861H55.6379V5.71803H68.0795V9.23557H59.9387Z" fill="white"/>
<path d="M86.6721 23.1823H78.1319L76.7188 27.2861H72.203L79.9137 5.71803H84.9211L92.6318 27.2861H88.0852L86.6721 23.1823ZM85.5047 19.7265L82.402 10.7166L79.2993 19.7265H85.5047Z" fill="white"/>
<path d="M108.109 27.2861L103.378 18.8934H101.351V27.2861H97.0499V5.74889H105.099C106.757 5.74889 108.171 6.04716 109.338 6.6437C110.505 7.21967 111.376 8.01163 111.949 9.01958C112.543 10.007 112.84 11.1178 112.84 12.352C112.84 13.7713 112.43 15.057 111.611 16.2089C110.792 17.3403 109.573 18.122 107.956 18.5539L113.086 27.2861H108.109ZM101.351 15.6535H104.945C106.112 15.6535 106.983 15.3758 107.556 14.8204C108.13 14.2445 108.416 13.4525 108.416 12.4445C108.416 11.4572 108.13 10.6961 107.556 10.1612C106.983 9.60583 106.112 9.32813 104.945 9.32813H101.351V15.6535Z" fill="white"/>
<path d="M136.606 27.2861H132.305L122.567 12.5063V27.2861H118.266V5.71803H122.567L132.305 20.5287V5.71803H136.606V27.2861Z" fill="white"/>
<path d="M146.693 5.74889V27.2861H142.392V5.74889H146.693Z" fill="white"/>
<path d="M170.818 27.2861H166.517L156.779 12.5063V27.2861H152.478V5.71803H156.779L166.517 20.5287V5.71803H170.818V27.2861Z" fill="white"/>
<path d="M191.534 12.2286C191.042 11.3235 190.366 10.6344 189.506 10.1612C188.646 9.68812 187.643 9.45156 186.496 9.45156C185.226 9.45156 184.1 9.73954 183.117 10.3155C182.133 10.8915 181.365 11.7143 180.813 12.784C180.26 13.8536 179.983 15.0878 179.983 16.4866C179.983 17.9265 180.26 19.1813 180.813 20.251C181.386 21.3207 182.174 22.1435 183.178 22.7194C184.181 23.2954 185.349 23.5834 186.68 23.5834C188.318 23.5834 189.66 23.1514 190.704 22.2875C191.749 21.4029 192.435 20.179 192.763 18.6157H185.39V15.3141H197.002V19.0785C196.715 20.5801 196.101 21.9686 195.159 23.244C194.217 24.5193 192.998 25.5479 191.503 26.3295C190.029 27.0906 188.37 27.4712 186.526 27.4712C184.458 27.4712 182.584 27.0084 180.905 26.0827C179.246 25.1365 177.935 23.8302 176.973 22.164C176.03 20.4978 175.559 18.6054 175.559 16.4866C175.559 14.3679 176.03 12.4754 176.973 10.8092C177.935 9.12243 179.246 7.81621 180.905 6.89055C182.584 5.94431 184.448 5.47119 186.496 5.47119C188.912 5.47119 191.012 6.06773 192.793 7.26081C194.575 8.43332 195.804 10.0892 196.48 12.2286H191.534Z" fill="white"/>
<path d="M0 0C4.86043 0 8.80059 3.94016 8.80059 8.80059V32H0V16V0Z" fill="white"/>
<path d="M24.0016 23.2C24.0016 28.0601 20.0617 32 15.2016 32H0V23.2L24.0016 23.2Z" fill="white"/>
<path d="M18 0H24V9C24 12.3137 21.3137 15 18 15V0Z" fill="white"/>
</svg>
