<?xml version="1.0" encoding="utf-8"?>
<!-- Generator: Adobe Illustrator 25.0.0, SVG Export Plug-In . SVG Version: 6.00 Build 0)  -->
<svg version="1.1" id="圖層_1" xmlns="http://www.w3.org/2000/svg" xmlns:xlink="http://www.w3.org/1999/xlink" x="0px" y="0px"
	 viewBox="0 0 32 32" style="enable-background:new 0 0 32 32;" xml:space="preserve">
<style type="text/css">
	.st0{fill:#FFFFFF;}
</style>
<path class="st0" d="M28.6,11.6c-0.3-0.3-0.6-0.6-1-0.7l-22-6.4c-0.3-0.1-0.6-0.1-0.9,0C4.3,4.4,4,4.5,3.8,4.7
	C3.6,4.9,3.3,5.2,3.2,5.4C3.1,5.7,3,6,3,6.3v17.3c0,0.3,0.1,0.6,0.2,0.9c0.1,0.3,0.3,0.5,0.6,0.7c0.2,0.2,0.5,0.3,0.8,0.4
	c0.1,0,0.2,0,0.4,0c0.2,0,0.4,0,0.6-0.1l10.4-3V24c0,0.5,0.2,1,0.6,1.4S17.5,26,18,26h4c0.5,0,1-0.2,1.4-0.6S24,24.5,24,24v-3.8
	l3.6-1c0.4-0.1,0.8-0.4,1-0.7c0.3-0.3,0.4-0.8,0.4-1.2v-4.5C29,12.3,28.9,11.9,28.6,11.6z M22,24h-4v-2l4-1.2V24z M27,17.2l-9,2.6
	v-9.8l9,2.6V17.2z"/>
</svg>
